<?xml version="1.0" encoding="UTF-8"?>
<svg xmlns="http://www.w3.org/2000/svg" xmlns:xlink="http://www.w3.org/1999/xlink" width="98px" height="98px" viewBox="0 0 98 98" version="1.1">
<defs>
<linearGradient id="linear0" gradientUnits="userSpaceOnUse" x1="0.621023" y1="0" x2="1.081972" y2="0.378636" gradientTransform="matrix(72.386719,0,0,97.363281,0.320312,0.3125)">
<stop offset="0" style="stop-color:rgb(25.882353%,52.156863%,92.156863%);stop-opacity:1;"/>
<stop offset="1" style="stop-color:rgb(18.039216%,78.039216%,100%);stop-opacity:1;"/>
</linearGradient>
<linearGradient id="linear1" gradientUnits="userSpaceOnUse" x1="0.696441" y1="0" x2="0.540429" y2="1.084567" gradientTransform="matrix(72.386719,0,0,97.363281,0.320312,0.3125)">
<stop offset="0" style="stop-color:rgb(16.078431%,80.392157%,100%);stop-opacity:1;"/>
<stop offset="0.378601" style="stop-color:rgb(7.843137%,55.686275%,100%);stop-opacity:1;"/>
<stop offset="1" style="stop-color:rgb(3.921569%,37.647059%,100%);stop-opacity:1;"/>
</linearGradient>
<linearGradient id="linear2" gradientUnits="userSpaceOnUse" x1="0.696908" y1="-0.129744" x2="0.167229" y2="1.173912" gradientTransform="matrix(24.109375,0,0,37.949219,73.636719,30.164062)">
<stop offset="0" style="stop-color:rgb(98.039216%,50.588235%,43.137255%);stop-opacity:1;"/>
<stop offset="0.414726" style="stop-color:rgb(96.862745%,29.019608%,36.078431%);stop-opacity:1;"/>
<stop offset="1" style="stop-color:rgb(96.078431%,11.372549%,17.254902%);stop-opacity:1;"/>
</linearGradient>
<linearGradient id="linear3" gradientUnits="userSpaceOnUse" x1="0.68128" y1="-0.356906" x2="0.304401" y2="1.149427" gradientTransform="matrix(23.128906,0,0,23.109375,37.691406,37.660156)">
<stop offset="0" style="stop-color:rgb(98.039216%,55.686275%,49.019608%);stop-opacity:1;"/>
<stop offset="0.512635" style="stop-color:rgb(96.862745%,29.019608%,36.078431%);stop-opacity:1;"/>
<stop offset="1" style="stop-color:rgb(96.078431%,11.372549%,17.254902%);stop-opacity:1;"/>
</linearGradient>
</defs>
<g id="surface1">
<path style=" stroke:none;fill-rule:nonzero;fill:url(#linear0);" d="M 44.878906 2.046875 L 2.046875 44.839844 C -0.253906 47.140625 -0.253906 50.859375 2.046875 53.160156 L 44.878906 95.953125 C 47.179688 98.253906 50.898438 98.253906 53.203125 95.953125 L 71.160156 78.011719 C 73.222656 75.949219 73.222656 72.609375 71.160156 70.546875 C 69.097656 68.488281 65.753906 68.488281 63.691406 70.546875 L 50.078125 84.152344 C 49.503906 84.722656 48.636719 84.722656 48.0625 84.152344 L 13.859375 49.976562 C 13.285156 49.402344 13.285156 48.535156 13.859375 47.960938 L 48.0625 13.789062 C 48.636719 13.214844 49.503906 13.214844 50.078125 13.789062 L 63.691406 27.390625 C 65.753906 29.449219 69.097656 29.449219 71.160156 27.390625 C 73.222656 25.328125 73.222656 21.988281 71.160156 19.929688 L 53.203125 1.988281 C 50.890625 -0.261719 47.171875 -0.246094 44.878906 2.046875 Z M 44.878906 2.046875 "/>
<path style=" stroke:none;fill-rule:nonzero;fill:url(#linear1);" d="M 44.878906 2.046875 L 2.046875 44.839844 C -0.253906 47.140625 -0.253906 50.859375 2.046875 53.160156 L 44.878906 95.953125 C 47.179688 98.253906 50.898438 98.253906 53.203125 95.953125 L 71.160156 78.011719 C 73.222656 75.949219 73.222656 72.609375 71.160156 70.546875 C 69.097656 68.488281 65.753906 68.488281 63.691406 70.546875 L 50.078125 84.152344 C 49.503906 84.722656 48.636719 84.722656 48.0625 84.152344 L 13.859375 49.976562 C 13.285156 49.402344 13.285156 48.535156 13.859375 47.960938 L 48.0625 13.789062 C 49.488281 12.558594 51.816406 10.066406 55.238281 9.484375 C 57.777344 9.050781 60.558594 10.003906 63.570312 12.34375 C 61.554688 10.328125 58.101562 6.875 53.203125 1.988281 C 50.890625 -0.261719 47.171875 -0.246094 44.878906 2.046875 Z M 44.878906 2.046875 "/>
<path style=" stroke:none;fill-rule:nonzero;fill:url(#linear2);" d="M 75.304688 66.570312 C 77.367188 68.628906 80.710938 68.628906 82.773438 66.570312 L 96.019531 53.332031 C 98.324219 51.03125 98.324219 47.316406 96.019531 45.015625 L 82.660156 31.710938 C 80.589844 29.652344 77.246094 29.65625 75.183594 31.71875 C 73.121094 33.777344 73.121094 37.121094 75.183594 39.179688 L 84.207031 48.199219 C 84.78125 48.769531 84.78125 49.640625 84.207031 50.210938 L 75.304688 59.105469 C 73.242188 61.167969 73.242188 64.507812 75.304688 66.570312 Z M 75.304688 66.570312 "/>
<path style=" stroke:none;fill-rule:evenodd;fill:url(#linear3);" d="M 60.820312 49.214844 C 60.820312 42.832031 55.640625 37.660156 49.253906 37.660156 C 42.867188 37.660156 37.691406 42.832031 37.691406 49.214844 C 37.691406 55.59375 42.867188 60.769531 49.253906 60.769531 C 55.640625 60.769531 60.820312 55.59375 60.820312 49.214844 Z M 60.820312 49.214844 "/>
</g>
</svg>
