<svg xmlns="http://www.w3.org/2000/svg" viewBox="0 0 663.897 172.481" xml:space="preserve">
    <defs>
        <clipPath id="a">
            <path d="m91.737 146.325-9.704-1.577-8.855-3.881-7.52-4.73-7.157-8.734-4.043-4.282-3.91-1.441-1.034 2.527 1.808 2.61.407 3.68 1.21-.05 1.324-1.206-.357 3.749-1.467.984.045 1.428-3.475-1.965-3.146-3.712-.656-3.318 1.345-2.657 1.255-4.513 2.552-1.208 2.685.132 2.546 1.479-1.698-8.613 1.698-9.582-1.87-4.425-6.122-6.596 1.089-3.941 2.9-4.567 5.469-3.849 2.9-.397 3.225-.109-2.012-8.26 7.4-3.033 9.218-1.213 3.154 2.062.243 5.58 3.517 5.822.243 4.61 8.491-.607 7.884.728-7.884-4.73 1.334-5.702 4.973-7.763 4.852-2.062 3.882 1.577 1.577 3.154 8.127 6.186 1.577-1.334 12.736-.485 2.547 2.062.243 3.639-.85 1.576-.606 9.826-4.245 8.49.728 3.76 2.547-1.333 7.157-6.672 3.517-.242 3.882 1.577 3.881 2.91 1.941 6.308 11.402-.728 6.914 2.669 5.58 5.216 4.003 7.52.97 8.855-.85 10.31-2.182 9.219-2.184 2.911-3.032.97-5.337-5.822-4.852-1.698-4.246 7.035-4.245 3.882-2.305 1.456-9.219 7.641-7.399 4.003-7.4.607-8.611-1.456-7.52-2.79-5.216-4.245-4.125-4.973-4.245-1.213"/>
        </clipPath>
    </defs>
    <path d="M466.785 48.447h30.179l3.737 17.005c8.613 0 17.504-.056 26.117-.056 4.206 0 7.93 1.306 11.237 3.541a19.288 19.288 0 0 1 8.093 11.932c1.893 8.627 3.798 17.253 5.703 25.877 1.086 4.924 2.5 10.484-1.032 14.931-3.247 4.092-7.557 4.41-12.289 4.41-34.073-.037-68.146.001-102.22.001-3.439 0-6.32-1.112-9.326-2.662-2.82 1.994-5.366 2.662-8.824 2.662h-46.768l3.83 17.239h-30.224l-3.738-16.818H314.68c-3.672 0-7.199-1.152-10.277-3.13-2.985 1.857-5.287 2.663-8.823 2.663H207.84c1.34 5.823 2.68 11.648 4.018 17.472l-30.178.046-17.398-77.817 30.149-.008 9.07 39.825h10.201c1.214 0 .975-.691.772-1.605-2.86-12.74-5.72-25.48-8.578-38.22h199.88c3.39 0 6.044.7 9.097 2.258 3.009-2.01 5.667-2.678 9.343-2.646l46.295.388-3.726-17.288zM336.24 105.505h-8.897c-1.561 0-1.982-.712-2.292-2.111l-3.342-14.989c-.317-1.436.41-1.67 1.666-1.67h8.66l4.205 18.77zm51.037-.363h9.503c1.83 0 1.73-.959 1.4-2.44l-3.265-14.682c-.38-1.71-1.444-1.68-2.913-1.68h-9.67c-1.421 0-1.434.84-1.181 1.988 1.084 4.893 2.17 9.787 3.252 14.68.4 1.813 1.114 2.134 2.874 2.134zm62.559 0h9.503c1.83 0 1.73-.959 1.4-2.44l-3.265-14.682c-.38-1.71-1.444-1.68-2.913-1.68h-9.67c-1.422 0-1.434.84-1.182 1.988 1.085 4.893 2.17 9.787 3.252 14.68.401 1.813 1.115 2.134 2.875 2.134zM505.625 86.2h8.897c1.56 0 1.982.712 2.292 2.111l3.341 14.989c.318 1.435-.409 1.67-1.665 1.67h-8.66l-4.205-18.77" style="fill:#000;fill-opacity:1;fill-rule:evenodd;stroke:none" transform="matrix(1.25 0 0 -1.25 -37.44 223.04)"/>
    <path d="M380.319 121.715h37.905c5.916 0 9.683-4.84 8.373-10.755l-6.754-30.485c-1.31-5.915-7.222-10.755-13.137-10.755H368.8c-5.915 0-9.683 4.84-8.373 10.755l6.754 30.485c1.31 5.916 7.221 10.755 13.137 10.755zm6.87-12.24h18.742c3.131 0 5.124-2.56 4.431-5.69l-3.574-16.136c-.694-3.129-3.822-5.69-6.953-5.69h-18.741c-3.13 0-5.125 2.56-4.431 5.69l3.574 16.136c.693 3.13 3.821 5.69 6.953 5.69M442.803 121.715h37.906c5.916 0 9.683-4.84 8.372-10.755l-6.753-30.485c-1.31-5.915-7.222-10.755-13.137-10.755h-37.906c-5.915 0-9.683 4.84-8.372 10.755l6.753 30.485c1.31 5.916 7.222 10.755 13.137 10.755zm6.871-12.24h18.742c3.131 0 5.124-2.56 4.431-5.69l-3.575-16.136c-.693-3.129-3.822-5.69-6.952-5.69h-18.742c-3.13 0-5.124 2.56-4.431 5.69l3.575 16.136c.693 3.13 3.82 5.69 6.952 5.69M494.566 121.715h45.494c5.916 0 9.683-4.842 8.373-10.755l-6.754-30.485c-1.31-5.913-7.224-10.758-13.137-10.755l-45.494.022 11.518 51.973zm11.893-12.24h21.308c3.132 0 5.124-2.561 4.432-5.69l-3.575-16.136c-.693-3.127-3.823-5.69-6.952-5.69h-21.328M354.928 70.13h-45.494c-5.916 0-9.683 4.841-8.373 10.754l6.754 30.485c1.31 5.914 7.224 10.758 13.137 10.755l45.494-.021-11.518-51.974zm-11.893 12.239h-21.308c-3.131 0-5.124 2.562-4.431 5.69l3.574 16.136c.693 3.128 3.823 5.69 6.953 5.69h21.327M199.13 121.715h34.774c5.915 0 9.682-4.84 8.372-10.755l-4.937-22.286h-14.645l3.348 15.111c.693 3.13-1.302 5.69-4.431 5.69h-21.545c-3.129 0-.324-2.561-1.016-5.69l-3.304-14.91h-14.645l4.893 22.085c1.31 5.916 7.221 10.755 13.137 10.755" style="fill:#1f1917;fill-opacity:1;fill-rule:evenodd;stroke:none" transform="matrix(1.25 0 0 -1.25 -37.44 223.04)"/>
    <path d="m176.97 70.13 9.997 44.992h14.605L191.56 70.129M295.576 70.13H246.95c-5.915 0-9.683 4.84-8.373 10.754l1.96 8.846h.008l.377 1.7c1.31 5.915 7.224 10.758 13.137 10.756l34.024-.016.502 2.259c.534 2.948-1.324 5.337-4.246 5.457h-39.387l2.712 12.233 48.878-.014c5.793-.114 9.456-4.907 8.162-10.751l-.92-4.152h.008l-1.116-5.038h.01l-5.735-25.88h-.01l-1.365-6.155zm-37.798 12.239h25.905l1.684 7.578h-25.46c-.123.012-.25.02-.378.02-2.086 0-4.168-1.706-4.628-3.792-.455-2.061.838-3.75 2.881-3.791 0-.005-.002-.01-.004-.015" style="fill:#1f1917;fill-opacity:1;fill-rule:evenodd;stroke:none" transform="matrix(1.25 0 0 -1.25 -37.44 223.04)"/>
    <path d="M380.319 121.715h37.905c5.916 0 9.683-4.84 8.373-10.755l-6.754-30.485c-1.31-5.915-7.222-10.755-13.137-10.755H368.8c-5.915 0-9.683 4.84-8.373 10.755l6.754 30.485c1.31 5.916 7.221 10.755 13.137 10.755zm6.87-12.24h18.742c3.131 0 5.124-2.56 4.431-5.69l-3.574-16.136c-.694-3.129-3.822-5.69-6.953-5.69h-18.741c-3.13 0-5.125 2.56-4.431 5.69l3.574 16.136c.693 3.13 3.821 5.69 6.953 5.69M442.803 121.715h37.906c5.916 0 9.683-4.84 8.372-10.755l-6.753-30.485c-1.31-5.915-7.222-10.755-13.137-10.755h-37.906c-5.915 0-9.683 4.84-8.372 10.755l6.753 30.485c1.31 5.916 7.222 10.755 13.137 10.755zm6.871-12.24h18.742c3.131 0 5.124-2.56 4.431-5.69l-3.575-16.136c-.693-3.129-3.822-5.69-6.952-5.69h-18.742c-3.13 0-5.124 2.56-4.431 5.69l3.575 16.136c.693 3.13 3.82 5.69 6.952 5.69" style="fill:#6cf;fill-opacity:1;fill-rule:evenodd;stroke:none" transform="matrix(1.25 0 0 -1.25 -37.44 223.04)"/>
    <path d="m618.219 114.094-11.875 53.5-2.532 11.469-4.812 21.78h18.219l4.843-21.78 38.625.03c7.39.005 14.77-6.046 16.407-13.437l8.437-38.094c1.638-7.39-3.074-13.468-10.468-13.468h-56.844zm14.843 15.312h26.657c3.914 0 6.397 3.214 5.531 7.125l-4.469 20.156c-.866 3.91-4.775 7.125-8.687 7.125h-26.657l7.625-34.406zM444.656 91.844l-4.844 21.781-38.625-.031c-7.39-.004-14.768 6.045-16.406 13.437l-8.469 38.125c-1.637 7.392 3.075 13.438 10.47 13.438h56.874l14.406-64.969 4.813-21.781h-18.219zm-34.875 37.062h26.656l-7.656 34.375h-26.625c-3.913 0-6.397-3.184-5.531-7.094L401.094 136c.866-3.91 4.776-7.094 8.687-7.094zM240.406 91.844l-7.375 33.25h.094l-.313 1.312c-.116.38-.226.768-.312 1.156l-6.125 27.594h.062l-5.218 23.438h18.218l5.22-23.438h.03l4.125-18.625c.007-.03-.006-.064 0-.093l1.594-7.032H277c3.912 0 6.428 3.212 5.562 7.125l-4.187 18.875-5.125 23.188h18.25l5.156-23.188h.031l6.157-27.843c1.637-7.394-3.075-13.47-10.47-13.47H253.72l4.937-22.25h-18.25z" transform="translate(-37.44 -43.21)" style="fill:#6cf;fill-opacity:1;fill-rule:evenodd;stroke:none"/>
    <path d="M295.576 70.13H246.95c-5.915 0-9.683 4.84-8.373 10.754l1.96 8.846h.008l.377 1.7c1.31 5.915 7.224 10.758 13.137 10.756l34.024-.016.502 2.259c.534 2.948-1.324 5.337-4.246 5.457h-39.387l2.712 12.233 48.878-.014c5.793-.114 9.456-4.907 8.162-10.751l-.92-4.152h.008l-1.116-5.038h.01l-5.735-25.88h-.01l-1.365-6.155zm-37.798 12.239h25.905l1.684 7.578h-25.46c-.123.012-.25.02-.378.02-2.086 0-4.168-1.706-4.628-3.792-.455-2.061.838-3.75 2.881-3.791 0-.005-.002-.01-.004-.015" style="fill:#6cf;fill-opacity:1;fill-rule:evenodd;stroke:none" transform="matrix(1.25 0 0 -1.25 -37.44 223.04)"/>
    <path d="m54.14 102.044-1.795-4.885-4.444-4.4c-1.62-1.605-1.968-1.594-1.587-3.863.446-2.667 1.728-5.415 4.089-7.781 2.481-2.488 7.691-6.008 11.44-4.348a26.277 26.277 0 0 0-1.4-3.873c-2.514-5.512 3.613-6.592 7.9-7.751 3.564-.964 12.31-3.531 13.571 1.152.568 2.107.656 3.24.454 5.252 1.109 2.475 1.463 2.87 2.38 4.231 1.26 1.868 1.17 2.58.894 4.897a54.64 54.64 0 0 1-.193 1.446c4.243-.638 8.323-.63 12.482-.114-1.263-.736-2.529-1.38-4.199-2.239-3.963-2.037-.228-8.048 1.48-10.68 3.585-5.524 6.8-9.325 12.855-6.048 2.035 1.1 2.192 2.274 3.461 4.17.702.384 4.316 3.458 6.465 5.195.815-.978 2.375-1.158 4.74-1.329 1.19-.086 5.856-.056 7.093-.064 3.711-.024 5.939.362 6.229 4.406.137 1.918.055 2.326-.889 4.002l-.17 6.347c-.064 2.383-.519 3.845-1.454 6.072-.85 2.022-1.327 3.747-2.32 5.708.137.769.245 1.562.318 2.39l3.785-3.646c2.405-2.317 4.392-4.209 8.06-4.036 3.819.18 8.19 3.189 9.31 6.87l1.12 3.684c5.759-1.089 12.49-.84 17.504 1.836 7.376 3.936 10.827 11.85 11.675 20.221.686 6.772-.635 18.16-3.863 24.34-.95 1.816-5.237 4.115-7.116 2.21-1.416-1.434-2.389-3.62-3.917-4.927-1.184-1.012-2.651-1.512-3.936-2.042-.995 2.686-2.425 4.774-4.176 6.86-1.393 1.658-2.705 2.484-4.54 3.634-3.63 2.272-6.445 5.14-9.746 7.863-9.99 8.237-18.57 7.984-31.018 2.745-5.939-2.5-8.803-5.892-12.445-10.765-2.202-.114-3.714-.54-6.04-2.594a80.208 80.208 0 0 1-4.865-4.69c-11.635-1.855-18.862-4.073-26.507-10.85-3.11-2.758-5.372-5.815-7.136-9.25-1.638-1.81-3.266-3.665-5.428-4.498-1.523-.585-1.494-.584-2.03.848 1.81 1.36 1.78 3.92 1.948 6.238 1.142-.055 1.57-1.335 2.346-2.315.459 2.049.724 5.231-1.432 6.348.35.938.747 1.882 1.11 2.916-3.18-.552-14.086-7.903-8.267-13.51.383-1.556.684-2.628 1.19-3.68 1.332-2.77 4.325-3.244 6.934-2.227-.715-3.278-.86-6.844-.43-11.85.104-1.2.277-2.411.51-3.626" style="fill:#000;fill-opacity:1;fill-rule:evenodd;stroke:none" transform="matrix(1.25 0 0 -1.25 -37.44 223.04)"/>
    <path d="m54.831 101.791-.722-1.964-1.382.507.722 1.964 1.382-.507zm-.722-1.964-1.073-2.921-1.382.507 1.073 2.92 1.382-.506zm-1.073-2.921-.173-.268-.518.521.69-.253zm-.173-.268-2.355-2.332-1.036 1.042 2.355 2.332 1.036-1.042zm-2.355-2.332-2.089-2.069-1.036 1.042 2.089 2.07 1.036-1.043zm-2.089-2.069c-.318-.314-.426-.419-.522-.511l-1.02 1.065.506.488 1.036-1.042zm-.522-.511c-.943-.908-1.13-1.088-.858-2.71l-1.451-.241c-.4 2.389-.121 2.658 1.29 4.016l1.019-1.065zm-.858-2.71a13.125 13.125 0 0 1 1.335-3.934l-1.307-.685a14.586 14.586 0 0 0-1.48 4.378l1.452.242zm1.335-3.934a14.305 14.305 0 0 1 2.55-3.449l-1.042-1.036a15.779 15.779 0 0 0-2.815 3.8l1.307.685zm2.55-3.449c1.375-1.379 3.62-3.087 5.957-3.975l-.519-1.377c-2.553.97-4.992 2.824-6.48 4.316l1.042 1.036zm5.957-3.975c1.625-.618 3.282-.83 4.666-.218l.593-1.347c-1.786-.79-3.822-.555-5.778.188l.519 1.377zm4.666-.218 1.422.63-.415-1.5-.71.197-.297.673zm1.007-.87a27.819 27.819 0 0 0-.65-2.041l-1.387.5c.236.654.44 1.302.615 1.933l1.422-.391zm-.65-2.041a26.046 26.046 0 0 0-.79-1.94l-1.341.61c.274.602.522 1.216.744 1.83l1.388-.5zm-.79-1.94c-1.245-2.73.06-4.168 2.083-5.09l-.61-1.343c-2.768 1.263-4.546 3.245-2.814 7.044l1.341-.611zm2.083-5.09c1.293-.59 2.857-.997 4.31-1.376L67.14 64.7c-1.527.398-3.17.827-4.553 1.456l.611 1.342zm4.31-1.376c.384-.1.757-.197 1.024-.27l-.374-1.421c-.394.106-.706.188-1.018.268l.368 1.423zm1.024-.27c1.753-.473 4.783-1.342 7.508-1.515l-.093-1.474c-2.854.181-5.98 1.078-7.79 1.568l.375 1.422zm7.508-1.515c2.461-.156 4.656.259 5.164 2.144l1.423-.374c-.754-2.798-3.564-3.441-6.68-3.244l.093 1.474zm5.164 2.144c.269.999.425 1.77.49 2.535l1.474-.12c-.07-.832-.243-1.681-.541-2.79l-1.423.375zm.49 2.535c.065.768.038 1.514-.056 2.46l1.462.139c.107-1.065.138-1.892.068-2.72l-1.474.12zm-.056 2.46.057.37.674-.3-.731-.07zm.057.37c.992 2.213 1.4 2.81 2.122 3.868l1.215-.83c-.667-.977-1.045-1.53-1.99-3.638l-1.347.6zm2.122 3.868c.074.107.137.2.322.475l1.221-.823-.328-.482-1.215.83zm.322.475c.563.835.822 1.392.905 1.969l1.457-.202c-.119-.825-.445-1.558-1.14-2.59l-1.222.823zm.905 1.969c.086.605 0 1.328-.132 2.433l1.463.167c.144-1.213.24-2.006.126-2.802l-1.457.202zm-.132 2.433c-.036.302-.066.54-.086.696l1.456.185c.045-.332.075-.566.093-.714l-1.463-.167zm-.086.696c-.017.125-.054.377-.105.727l1.458.213c.022-.157.056-.401.103-.755l-1.457-.185zm-.105.727-.143.983.981-.148-.109-.729-.728-.106zm.838.835a43.215 43.215 0 0 1 6.167-.482l-.006-1.474a44.68 44.68 0 0 0-6.38.499l.22 1.457zm6.167-.482a47.127 47.127 0 0 1 6.12.37l.172-1.463c-2.11-.261-4.2-.394-6.298-.381l.006 1.474zm6.12.37.454-1.37-.368.639-.087.73zm.454-1.37c-1.19-.694-2.377-1.304-3.892-2.083l-.673 1.313c1.495.769 2.667 1.371 3.828 2.048l.737-1.279zm-3.892-2.083-.338-.173-.674 1.313.339.173.673-1.313zm-.338-.173c-1.557-.8-1.571-2.482-1.022-4.242l-1.404-.438c-.754 2.412-.653 4.756 1.752 5.993l.674-1.313zm-1.022-4.242c.624-1.998 1.95-4.1 2.781-5.382l-1.232-.8c-.877 1.35-2.274 3.57-2.953 5.744l1.405.438zm2.781-5.382c1.74-2.683 3.383-4.942 5.268-6.097l-.766-1.255c-2.132 1.306-3.891 3.71-5.734 6.552l1.232.8zm5.268-6.097c1.781-1.092 3.864-1.193 6.623.3l.697-1.302c-3.297-1.784-5.85-1.624-8.086-.253l.766 1.255zm6.623.3c1.304.705 1.741 1.471 2.33 2.504l1.284-.726c-.711-1.247-1.24-2.172-2.917-3.08l-.697 1.302zm2.33 2.504c.235.41.492.86.869 1.424l1.22-.818c-.301-.45-.564-.911-.804-1.332l-1.285.726zm.869 1.424.256.238.354-.647-.61.409zm.256.238c.43.237 2.269 1.755 4.057 3.232l.938-1.134c-1.848-1.528-3.75-3.099-4.287-3.393l-.708 1.295zm4.057 3.232c.92.76 1.828 1.511 2.3 1.892l.926-1.152a259.11 259.11 0 0 1-2.288-1.874l-.938 1.135zm2.3 1.892.564.456.466-.56-.568-.472-.463.576zm1.03-.104c.294-.353.759-.57 1.39-.722l-.34-1.434c-.941.226-1.665.588-2.185 1.211l1.135.945zm1.39-.722c.726-.173 1.679-.258 2.833-.341l-.103-1.474c-1.21.087-2.22.178-3.07.381l.34 1.434zm2.833-.341c.906-.066 3.798-.065 5.666-.064v-1.474c-1.908 0-4.863-.002-5.77.064l.104 1.473zm5.666-.064 1.379-.001-.006-1.474-1.373.001v1.474zm1.379-.001c1.74-.011 3.12.066 4.031.582l.726-1.284c-1.202-.68-2.793-.785-4.763-.772l.006 1.474zm4.031.582c.833.472 1.333 1.401 1.458 3.139l1.474-.104c-.166-2.306-.925-3.593-2.206-4.319l-.726 1.284zm1.458 3.139c.063.892.079 1.425-.022 1.881l1.44.317c.142-.646.129-1.277.056-2.302l-1.474.104zm-.022 1.881c-.1.457-.337.93-.775 1.71l1.29.72c.505-.898.783-1.468.925-2.113l-1.44-.317zm-.775 1.71-.092.342.737.017-.645-.36zm-.092.342-.085 3.174 1.474.034.085-3.174-1.474-.034zm-.085 3.174-.084 3.173 1.474.035.084-3.174-1.474-.034zm-.084 3.173c-.031 1.136-.154 2.047-.378 2.933l1.428.357c.252-.996.39-2.008.424-3.255l-1.474-.035zm-.378 2.933c-.227.893-.564 1.786-1.02 2.87l1.36.57c.478-1.14.837-2.092 1.088-3.083l-1.428-.357zm-1.02 2.87a54.8 54.8 0 0 0-.87 2.243l1.383.507c.258-.696.521-1.407.846-2.18l-1.359-.57zm.513 2.753v-.003l-.691-.253.69.256zm-1.382-.513c-.422 1.136-.83 2.239-1.43 3.423l1.319.662c.63-1.243 1.055-2.39 1.493-3.572l-1.382-.513zm-1.43 3.423-.066.458.725-.127-.66-.331zm-.066.458c.072.41.133.792.18 1.138l1.456-.185c-.06-.45-.122-.85-.185-1.207l-1.451.254zm.18 1.138c.041.314.083.706.126 1.186l1.474-.12c-.03-.35-.08-.769-.144-1.25l-1.457.184zm.126 1.186.137 1.541 1.11-1.069-.51-.532-.737.06zm1.247.472 2.165-2.086-1.019-1.066-2.166 2.087 1.02 1.065zm2.165-2.086 1.62-1.56-1.02-1.066-1.619 1.56 1.02 1.066zm1.62-1.56c1.168-1.126 2.236-2.15 3.42-2.848l-.748-1.273c-1.326.782-2.456 1.864-3.692 3.055l1.02 1.066zm3.42-2.848c1.14-.673 2.425-1.063 4.095-.984l.07-1.474c-1.998-.094-3.541.375-4.913 1.185l.749 1.273zm4.095-.984c1.802.085 3.748.858 5.365 2.052l.876-1.186c-1.843-1.36-4.08-2.241-6.172-2.34l-.069 1.474zm5.365 2.052c1.544 1.138 2.775 2.65 3.275 4.293l1.411-.426c-.597-1.963-2.028-3.738-3.81-5.053l-.876 1.186zm3.275 4.293.517 1.703 1.411-.426-.517-1.703-1.411.426zm.517 1.703.602 1.982 1.41-.426-.6-1.982-1.412.426zm.602 1.982.192.632.649-.123-.136-.722-.705.213zm.84.51c2.985-.565 6.235-.762 9.359-.434l.144-1.463c-3.266-.342-6.66-.137-9.773.451l.27 1.445zm9.359-.434c2.744.287 5.39.984 7.666 2.198l.691-1.302c-2.444-1.304-5.279-2.051-8.213-2.359l-.144 1.463zm7.666 2.198c3.332 1.778 5.835 4.405 7.637 7.527l1.278-.732c-1.936-3.353-4.63-6.179-8.224-8.097l-.691 1.302zm7.637 7.527v.003l.64-.369-.64.366zm0 .003c2.06 3.566 3.212 7.775 3.652 12.11l1.462-.139c-.46-4.544-1.672-8.96-3.836-12.708l-1.278.737zm3.652 12.11c.357 3.533.16 8.35-.58 13.01l1.451.23c.758-4.778.96-9.734.591-13.379l-1.462.139zm-.58 13.01c-.653 4.11-1.726 8.086-3.206 10.92l1.307.68c1.554-2.975 2.674-7.11 3.35-11.37l-1.451-.23zm-3.206 10.92a3.007 3.007 0 0 1-.556.708l1.03 1.054c.356-.35.644-.72.833-1.083l-1.307-.68zm-.556.708c-.632.624-1.57 1.214-2.543 1.549l.478 1.393c1.18-.406 2.324-1.126 3.095-1.888l-1.03-1.054zm-2.543 1.549c-.902.31-1.811.396-2.46.056l-.68 1.308c1.047.547 2.366.46 3.618.03l-.478-1.394zm-2.46.056a1.5 1.5 0 0 1-.376-.277l-1.054 1.03c.225.23.478.413.75.555l.68-1.308zm-.376-.277c-.603-.611-1.132-1.384-1.662-2.158l-1.215.83c.573.836 1.144 1.67 1.823 2.358l1.054-1.03zm-1.662-2.158c-.697-1.019-1.398-2.042-2.305-2.816l-.955 1.123c.766.655 1.407 1.59 2.045 2.522l1.215-.829zm-2.305-2.816c-1.11-.949-2.396-1.465-3.592-1.944l-.547 1.37c1.087.436 2.257.905 3.184 1.697l.955-1.123zm-3.592-1.944a75.564 75.564 0 0 1-.542-.22l-.559 1.365c.23.095.392.16.554.225l.547-1.37zm-.542-.22-.704-.29-.266.72.69.253.28-.682zm-.97.43a18.97 18.97 0 0 1-1.739 3.517l1.25.783a20.432 20.432 0 0 0 1.87-3.793l-1.381-.507zm-1.739 3.517c-.684 1.092-1.46 2.11-2.31 3.124l1.128.945c.899-1.071 1.715-2.142 2.432-3.286l-1.25-.783zm-2.31 3.124a12.049 12.049 0 0 1-1.986 1.895l.892 1.17a13.493 13.493 0 0 0 2.222-2.12l-1.129-.945zm-1.986 1.895c-.688.524-1.47 1.016-2.382 1.587l.783 1.25c.923-.58 1.716-1.077 2.491-1.668l-.892-1.169zm-2.382 1.587c-2.57 1.609-4.724 3.498-6.922 5.426l.967 1.111c2.152-1.887 4.26-3.737 6.738-5.288l-.783-1.25zm-6.922 5.426c-.925.811-1.858 1.63-2.902 2.49l.94 1.14a128.81 128.81 0 0 0 2.93-2.519l-.968-1.11zm-2.902 2.49c-4.867 4.014-9.375 5.959-14.164 6.26l.092 1.474c5.11-.321 9.889-2.37 15.011-6.593l-.939-1.14zm-14.164 6.26c-4.824.304-9.979-1.047-16.099-3.623l-.57 1.359c6.327 2.663 11.687 4.058 16.761 3.738l-.092-1.474zm-16.099-3.623c-2.884-1.214-5.019-2.642-6.87-4.355l-.997 1.083c1.975 1.827 4.243 3.346 7.297 4.63l.57-1.358zm-6.87-4.355c-1.867-1.725-3.471-3.764-5.27-6.17l-1.18.88c1.842 2.465 3.493 4.56 5.453 6.373l.996-1.083zm-5.27-6.17-.208-.28-.345-.017-.037.737.59-.44zm-.553-.297c-1.025-.054-1.883-.178-2.737-.519l-.547 1.37c1.034.414 2.033.562 3.21.623l.074-1.474zm-2.737-.519c-.866-.346-1.76-.926-2.854-1.892l-.973 1.106c1.231 1.087 2.26 1.748 3.28 2.156l.547-1.37zm-2.854-1.892a73.39 73.39 0 0 1-2.47-2.285l-1.025 1.06c.81.782 1.647 1.56 2.522 2.33l.973-1.105zm-2.47-2.285-.003-.003-.51.533.513-.53zm-.003-.003a86.97 86.97 0 0 1-2.345-2.36l-1.065 1.02c.78.814 1.574 1.616 2.391 2.406l1.02-1.066zm-2.345-2.36-.418-.216-.115.726.533-.51zm-.418-.216c-5.761-.918-10.43-1.925-14.6-3.54l-.53 1.376c4.264 1.651 9.026 2.68 14.9 3.616l.23-1.452zm-14.6-3.54c-4.134-1.602-7.783-3.81-11.535-7.136l-.974 1.105c3.892 3.451 7.681 5.742 11.98 7.407l.529-1.377zm-11.535-7.136a30.054 30.054 0 0 1-3.976-4.264l-1.169.892a31.52 31.52 0 0 0 4.171 4.478l.974-1.106zm-3.976-4.264a31.531 31.531 0 0 1-2.99-4.767l-1.314.667c.9 1.754 1.93 3.414 3.135 4.992l1.17-.892zm-2.99-4.767-.11-.159-.547.493.656-.334zm-.11-.159c-.838-.926-1.675-1.865-2.572-2.672l-.985 1.1c.866.78 1.664 1.674 2.463 2.557l1.094-.985zm-2.572-2.672c-.94-.847-1.96-1.567-3.139-2.021l-.53 1.377c.984.378 1.861 1.002 2.684 1.743l.985-1.1zm-3.139-2.021h-.002l-.262.688.264-.688zm-.002 0c-.946-.363-1.408-.546-1.932-.324l.57 1.36c.024-.01.261.12.838.34l.524-1.376zm-1.932-.324-.003.003.288.677-.285-.68zm-.003.003c-.553.235-.707.689-1.049 1.601l1.383.513c.194-.52.19-.738.242-.76l-.576-1.354zm-1.049 1.601-.192.513.443.333.44-.59-.69-.256zm.251.846c1.354 1.018 1.483 3.045 1.606 4.997l1.474-.093c-.144-2.282-.294-4.653-2.199-6.084l-.881 1.18zm1.606 4.997c.016.255.032.51.046.703l1.474-.104c-.019-.267-.033-.48-.046-.692l-1.474.093zm.046.703.053.719.719-.034-.035-.737-.737.052zm.772.685c1.216-.058 1.77-.916 2.367-1.84l-1.238-.796c-.382.592-.736 1.14-1.198 1.162l.069 1.474zm2.367-1.84a9.7 9.7 0 0 1 .52-.754l-1.151-.916c-.23.29-.42.586-.607.874l1.238.795zm.664-1.37-.337-1.509-.958 1.209.575.458.72-.159zm-1.44.316c.25 1.113.44 2.573.17 3.768l1.435.322c.33-1.459.118-3.142-.165-4.407l-1.44.317zm.17 3.768c-.17.76-.537 1.413-1.22 1.766l.674 1.313c1.128-.584 1.72-1.597 1.98-2.757l-1.433-.322zm-1.22 1.766-.582.302.228.61.692-.256-.337-.656zm-.354.913c.11.29.268.695.43 1.11l1.371-.536a69.473 69.473 0 0 1-.418-1.087l-1.383.513zm.43 1.11c.218.555.441 1.123.676 1.791l1.393-.483c-.21-.597-.457-1.229-.698-1.844l-1.37.536zm1.249 2.275 1.236.215-.416-1.182-.697.241-.123.726zm.247-1.451c-1.427-.248-4.57-2.012-6.852-4.38l-1.065 1.02c2.49 2.583 6.025 4.526 7.67 4.811l.247-1.451zm-6.852-4.38c-.826-.858-1.527-1.785-1.97-2.73l-1.336.616c.522 1.114 1.317 2.174 2.241 3.133l1.065-1.019zm-1.97-2.73c-.423-.9-.615-1.823-.46-2.718l-1.451-.248c-.21 1.213.032 2.424.575 3.582l1.336-.616zm-.46-2.718c.141-.813.578-1.63 1.4-2.423l-1.019-1.066c-1.066 1.028-1.639 2.124-1.832 3.241l1.451.248zm1.4-2.423.205-.357-.714-.176.51.533zm.205-.357c.187-.762.355-1.405.537-1.987l-1.405-.438c-.19.606-.365 1.278-.56 2.073l1.428.352zm.537-1.987c.175-.557.365-1.057.604-1.554l-1.33-.633c-.267.555-.48 1.118-.679 1.75l1.405.437zm.604-1.554c.53-1.103 1.37-1.774 2.336-2.084l-.45-1.405c-1.336.429-2.491 1.349-3.216 2.856l1.33.633zm2.336-2.084c1.127-.362 2.44-.251 3.665.226l.536-1.37c-1.532-.597-3.195-.728-4.65-.261l.449 1.405zm3.665.226 1.28.5-.292-1.34-.72.155-.268.685zm.988-.84c-.347-1.593-.557-3.262-.627-5.147l-1.474.051c.073 1.969.294 3.723.661 5.407l1.44-.311zm-.627-5.147c-.07-1.886.001-4.002.215-6.488l-1.474-.12c-.217 2.52-.288 4.692-.215 6.66l1.474-.052zm.215-6.488c.054-.632.12-1.215.194-1.748l-1.457-.196c-.093.662-.164 1.271-.211 1.824l1.474.12zm.194-1.748c.083-.587.183-1.188.3-1.8l-1.445-.276a37.805 37.805 0 0 0-.312 1.88l1.457.196zm.3-1.8-.03-.39-.692.253" style="fill:#000;fill-opacity:1;fill-rule:nonzero;stroke:none" transform="matrix(1.25 0 0 -1.25 -37.44 223.04)"/>
    <path d="m91.737 146.325-9.704-1.577-8.855-3.881-7.52-4.73-7.157-8.734-4.043-4.282-3.91-1.441-1.034 2.527 1.808 2.61.407 3.68 1.21-.05 1.324-1.206-.357 3.749-1.467.984.045 1.428-3.475-1.965-3.146-3.712-.656-3.318 1.345-2.657 1.255-4.513 2.552-1.208 2.685.132 2.546 1.479-1.698-8.613 1.698-9.582-1.87-4.425-6.122-6.596 1.089-3.941 2.9-4.567 5.469-3.849 2.9-.397 3.225-.109-2.012-8.26 7.4-3.033 9.218-1.213 3.154 2.062.243 5.58 3.517 5.822.243 4.61 8.491-.607 7.884.728-7.884-4.73 1.334-5.702 4.973-7.763 4.852-2.062 3.882 1.577 1.577 3.154 8.127 6.186 1.577-1.334 12.736-.485 2.547 2.062.243 3.639-.85 1.576-.606 9.826-4.245 8.49.728 3.76 2.547-1.333 7.157-6.672 3.517-.242 3.882 1.577 3.881 2.91 1.941 6.308 11.402-.728 6.914 2.669 5.58 5.216 4.003 7.52.97 8.855-.85 10.31-2.182 9.219-2.184 2.911-3.032.97-5.337-5.822-4.852-1.698-4.246 7.035-4.245 3.882-2.305 1.456-9.219 7.641-7.399 4.003-7.4.607-8.611-1.456-7.52-2.79-5.216-4.245-4.125-4.973-4.245-1.213-7.4-7.036z" style="fill:#ff0;fill-opacity:1;fill-rule:evenodd;stroke:#1f1917;stroke-width:.21600001;stroke-linecap:butt;stroke-linejoin:miter;stroke-miterlimit:10;stroke-opacity:1;stroke-dasharray:none" transform="matrix(1.25 0 0 -1.25 -37.44 223.04)"/>
    <path d="M63.593 124.433c-8.312-9.695-6.466-21.453-4.162-32.973-1.23 3.107-2.46 6.212-3.688 9.319l-1.36 8.542.389 8.736 3.494 8.348 5.242 7.765 8.153 6.795 8.93 3.688 10.484 1.36-9.707-11.066c-7.794-2.528-12.39-4.23-17.775-10.514" style="fill:#ffc;fill-opacity:1;fill-rule:evenodd;stroke:none" transform="matrix(1.25 0 0 -1.25 -37.44 223.04)"/>
    <path d="M102.723 153.972c-5.778-5.638-8.935-9.89-12.612-16.491-2.63-4.722-5.581-9.27-8.347-13.926-1.399-2.357-1.53-4.333-1.949-7.051l-4.077 4.853 1.942 5.824 6.6 11.843 13.978 13.783 4.465 1.165M131.261 167.95c-4.628-1.736-12.314-2.307-12.847-7.62-.38-3.772.284-5.667 2.558-9.658-5.616 5.811-7.005 4.912-17.86 3.106l4.659 6.6 8.154 5.048 10.483 2.33 4.853.194" style="fill:#ffc;fill-opacity:1;fill-rule:evenodd;stroke:none" transform="matrix(1.25 0 0 -1.25 -37.44 223.04)"/>
    <path d="M144.032 96.096c1.54-.951 1.508-1.64 1.25-2.292l3.646 1.458 2.362 3.172 1.754 4.52c-.747.56-1.494 1.122-2.24 1.684l-9.793-1.25-.73-1.98.21-2.812c.311-.556.624-1.112.937-1.667l1.458-.73c.382-.034.764-.07 1.146-.103M143.12 112.842c-4.908-1.417-4.87-1.807-6.32-6.677 1.914 3.07 3.331 4.62 6.32 6.677M175.759 149.285c-.873-.403-1.722-.597-2.268-1.396-1.174-1.718-2.18-3.163-4.122-4.37-.978-.607-1.99-1-3.027-1.324-.86-.267-1.377-.028-2.11-.554l1.304-.228h2.873l3.543 2.187 2.083 2.188 1.724 3.497M97.569 138.392c-1.932-5.284-3.619-9.814-6.544-14.599 3.748 4.04 6.02 7.472 8.168 12.038.834 1.774.991 3.855 3.314 3.081.105-1.77.48-3.542.583-5.313 1.256 8.998 4.795 12.76 13.022 16.252l-6.98-.833-6.563-1.459-3.23-4.688-1.77-4.48M113.508 138.6c1.774-8.351 4.329-16.366 5.439-24.85.72-5.512.8-8.16-1.975-12.916-3.03.196-4.912-.146-7.844-1.106-11.673-3.827-18.367-9.452-26.231 1.883l7.532-3.55 5.369 1.056 9.48 5.521 7.397 1.459 2.396 10-1.771 13.231-.209 6.25.417 3.022M133.614 86.928c-.98-6.785 2.258-10.432.917-12.306-.38-.53-.894-1.456-1.468-1.71-2.052-.906-4.872.17-5.074-.36h-6.772l-2.708 1.145 4.167 4.897 4.063 8.855 2.604 8.959h1.354l2.917-9.48" style="fill:#cc0;fill-opacity:1;fill-rule:evenodd;stroke:none" transform="matrix(1.25 0 0 -1.25 -37.44 223.04)"/>
    <path d="M122.233 106.652c.55-3.08 1.505-3.813 2.954-6.795-.964-4.865-2.514-10.65-4.378-14.942-.787-1.81-1.421-2.809-2.808-4.208-2.34-2.363-4.707-4.422-7.361-6.47-1.91-1.474-3.245-.735-5.602-.401-1.003-1.818-1.28-2.827-3.125-3.75-2.838-1.419-5.378 1.639-7.605 3.438l4.824-7.536 3.333-3.125 2.813-.417 3.75 2.292 1.98 3.75 4.167 3.126 5.105 4.375 3.23 4.584c.971 1.806 1.944 3.612 2.916 5.417l3.75 11.251.313 4.272-4.688 2.083c-1.146 1.077-2.422 1.98-3.568 3.056M84.86 84.949c5.257 0 10.81.291 15.626 2.5 1.363 2.044 2.708 3.714 4.375 5.521-1.517-2.866-1.993-4.486-2.396-7.709l-1.562-2.292-11.877-.312-3.854.416-.417.417.104 1.459M84.13 88.595l-.408 3.698c-.898-5.407-.682-9.03-3.171-13.874-1.859-2.154-4.148-4.114-6.77-5.162.222-1.328.288-2.158.16-3.132-.462-3.502-7.468-1.955-10.35-1.815l13.872-3.572 3.125 1.25 1.042 6.043 2.917 5.417.52 3.333-.937 7.814M76.317 119.119c-.146-2.63-.316-3.726.844-6.048 1.474-2.951 3.284-5.724 4.886-8.641l.52 5.834-6.25 8.855M54.931 99.258l-1.353-2.88c1.241-4.18 2.345-6.829 4.708-10.481-.411-1.48-.72-2.128-1.667-3.334-2.08.32-3.927.412-6.034.406l6.98-5.417 3.438.625 3.438 3.438-4.897 7.605-4.613 10.038M175.774 150.668c1.417-6.375 3.244-12.258 3.075-18.787-.208-8.01-1.77-18.129-9.191-22.96-8.312-5.41-18.07-2.85-27.189-.533l11.147-4.583 10.418-.521 7.084 2.083 5.522 4.584 4.167 8.75 1.562 10.106-1.25 9.897-2.292 9.793-3.053 2.171M51.734 131.667c-3.773-2.456-5.255-3.534-4.842-8.085l1.129-4.09 1.598-1.082 1.974-.658 3.573.847L57 124.287l-5.078-2.492h-1.175l-1.316 2.021 1.598 2.351.846 4.466 1.082-.329 1.316-1.034-.188 2.35-.893 1.505-.894.752-.564-2.21M136.392 167.534c3.348-3.11 7.459-5.813 10.137-9.613 1.037-1.472 2.189-2.224-.017-4.302 2.33.666 3.196.594 5.062.368 3.394-.411 6.576-5.236 6.779-8.694-.04-.323-.943-1.057-3.567-1.781-.053-.101-1.482.195-1.446.098.273-.746.637-.86 1.193-1.21.121-.83.199-2.11.764-3.017 1.652.03 3.265-.15 4.883-.47.544-.903.462-1.806.416-2.71.625.105 1.25.21 1.875.313l-.52 4.271 1.666 2.813-2.396 5.418a37696.29 37696.29 0 0 0-4.584 4.375l-.44.022-5.156 3.163-8.407 6.88-6.243 4.076M142.033 141.866c-.177-.309-.444-.803-.785-1.145 1.395-1.32 2.083-2.203 2.58-4.069l-4.73-2.348-4.003-3.838c-1.756.946-2.194 1.672-3.044 3.474-.99-.262-1.927-.514-2.744-.215.518-.004.837.126 1.355.446l2.547 2.647 4.499 3.407 2.944.96c.375.154 1.006.527 1.38.681" style="fill:#cc0;fill-opacity:1;fill-rule:evenodd;stroke:none" transform="matrix(1.25 0 0 -1.25 -37.44 223.04)"/>
    <path d="M146.385 137.16c-5.016-2.7-9.821-5.418-12.386-10.548 0 6.512 6.538 9.378 12.386 10.548M133.002 149.97c-3.725-2.54-6.359-7.666-6.028-12.661-1.213 4.325-.783 8.412 2.943 11.4l1.885.917 1.2.343" style="fill:#cc0;fill-opacity:1;fill-rule:evenodd;stroke:none" transform="matrix(1.25 0 0 -1.25 -37.44 223.04)"/>
    <path d="M140.123 111.408c.77.42 2.167.995 2.937 1.414-.792-.134-2.212-.425-3.004-.558-2.115-.357-2.364-.866-2.692-2.949-.155-.98-.368-2.197-.523-3.179.415 1.11.914 2.399 1.397 3.457.511 1.119.8 1.224 1.885 1.815zm-39.252 53.643c1.662 2.494 2.62 3.305 5.178 4.885-3.474-.837-4.136-1.48-5.178-4.885zm-.547-5.494c2.909 5.849 5.112 8.002 11.203 10.875-6.89-1.689-8.915-2.89-11.203-10.875zm-62.3-30.44c.639 2.928 1.234 4.032 3.04 6.436-2.93-2.046-3.312-2.887-3.04-6.437zm65.21-49.015-.266 2.132c-.16 1.288-.153 2.334-.05 3.63l.295 3.763c-.365-1.274-1.095-2.55-1.46-3.824-.146-.51-.267-.924-.336-1.305a42.927 42.927 0 0 0-16.316-.21 101.805 101.805 0 0 1-1.127 5.63c-.107-1.69-.038-6.359-.047-8.973-.007-2.025-.092-2.719-1.136-4.442-.978-1.613-1.392-1.979-2.761-4.704.114-1.72.116-2.857-.341-4.489-.76-2.713-8.425-.61-10.447-.057-2.49.681-7.638 1.694-6.343 5.014 1.14 2.921 1.861 6.001 2.418 10.09-4.562 6.571-8.805 15.578-9.619 23.558-.632 6.196-.253 10.01 1.088 13.8 2.125 6.004 5.097 11.202 9.866 15.388 6.433 5.645 12.447 7.912 21.862 9.345-2.264-2.534-4.504-5.215-6.946-8.089-2.472-2.91-3.94-5.848-5.51-9.03-2.168-4.395-2.122-6.068.753-9.926 2.477-3.326 3.814-4.823 4.895-8.076-.893-1.841-1.218-3.397-1.518-5.911 3.033-3.315 5.286-5.587 8.23-6.287 2.89-.686 5.301-.553 7.885.768 5.74 2.934 11.05 6.723 17.524 6.88 2.995 7.363 2.692 13.515 1.254 20.64-.982 4.865-1.376 9.472-1.681 14.432-1.215-5.108-1.442-9.6-.542-14.689 1.087-6.132 1.93-12.907-1.09-18.296-5.854-.448-10.871-4.01-16.148-6.742-2.12-1.099-4.328-1.206-6.676-.561-2.179.598-3.65 2.04-5.997 4.747-.036 2.718.577 3.973 1.825 6.434 2.006 3.953 4.22 7.633 6.648 11.523-2.974-3.59-5.792-6.59-8.133-10.2-.895 2.55-2.174 3.844-4.294 6.715-2.07 2.804-2.287 4.032-.74 7.276 1.557 3.26 2.877 6.127 5.526 8.987 4.578 4.944 8.771 10.445 13.777 15.314 2.718 2.643 3.822 2.552 7.427 3.098 3.259.494 6.44 1.118 9.764 1.89-3.214-.3-6.321-.41-9.45-.488l-.097-.002c3.078 3.932 4.865 6.123 9.865 8.295 12.31 5.346 20.131 5.925 29.801-2.204 2.506-2.107 4.695-4.152 7.237-5.97-.922-.078-1.716-.243-2.766-.656 1.278.244 2.754.002 4.08-.24.373-.242.755-.477 1.148-.709 1.793-1.056 2.811-1.64 4.025-3.33a36.027 36.027 0 0 0 3.293-5.54c-.617.221-1.135.407-1.596.545a3.437 3.437 0 0 1-3.237-.2l-.076-.036c-.992-.483-2.53-1.034-3.558-1.2.525-.182 1.685-.25 2.232-.033.074.029.148.051.225.07a3.427 3.427 0 0 1-.458-1.413 3.431 3.431 0 0 1 .367-1.91l.003-.005c.093-.219.222-.42.364-.566-.47-.173-.95-.37-1.445-.586 2.294.35 4.363.41 6.602.115.147-.706.296-1.454.434-2.214-.277-.023-.554-.044-.831-.065l-.068-.006c-1.06.846-2.24.704-3.852.336-4.903-1.118-3.751-3.87-6.007-8.015 2.342 2.863 2.169 5.858 5.986 6.762.89.211 1.495.474 2.097.384-1.084-.545-2.021-1.449-2.393-2.498-1.048-2.958-.397-5.45-1.548-8.214 1.426 2.47 1.512 4.88 2.786 7.48.458.933 2.158 2.428 3.2 2.45l.86.02c.25-1.645.404-3.278.306-4.632-.178-2.472-.82-6.14-1.204-7.543 1.291 1.66 1.88 5.176 2.447 7.651.59 2.577.441 5.67-.076 8.439-.71 3.799 3.203 3.18 5.475 4.971 1.67 1.316 2.818 3.418 4.35 4.907 1.518 1.476 3.908-.693 4.505-2.137 2.59-6.265 3.77-16.122 3.086-22.437-.768-7.087-4.191-14.824-10.442-18.313-7.968-4.447-17.363-1.73-25.28.937-1.69.57-2.865 1.399-4.35 2.335.404-1.821.588-3.749.05-5.567-.854-2.886-2.233-7.607 1.684-8.478 1.491-.331 2.168-.283 4.273.803-1.704-.385-2.563-.29-3.734-.074-1.061.195-1.624.87-1.92 1.664.37-.268.975-.413 2.008-.662 2.905-.7 5.672.698 6.213 2.712.316 1.177.262 1.795.931 3.398.6-.185 1.222-.355 1.86-.509l-1.08-3.52c-.933-3.044-4.57-5.5-7.781-5.443-2.968.053-4.85 1.912-6.9 3.735-1.411 1.256-2.77 2.458-4.117 3.649-3.694 1.165-6.656 2.528-10.084 5.066 2.44-2.868 4.095-4.455 7.498-5.882-.495-5.048-2.25-8.73-3.745-13.56-.677-2.186-6.022-10.939-7.503-11.792-1.056-.609-7.67-6.18-8.916-6.916-.926-1.23-1.74-2.931-3.133-3.668-4.246-2.245-6.974 2.054-9.26 5.685-1.04 1.654-3.928 6.418-1.41 7.753 2.381 1.261 3.715 2.162 6.144 3.757.357-.65.97-1.279 1.369-1.929zm14.76-7.697c-2.15-1.737-5.764-4.81-6.466-5.196-1.27-1.895-1.426-3.068-3.46-4.17-6.057-3.276-9.271.524-12.856 6.049-1.708 2.633-5.443 8.643-1.48 10.68 1.67.859 2.936 1.502 4.198 2.237-4.158-.515-8.238-.522-12.482.117.076-.512.141-1 .194-1.446.276-2.319.366-3.03-.893-4.898-.918-1.362-1.272-1.756-2.381-4.231.202-2.012.114-3.145-.453-5.252-1.262-4.683-10.008-2.116-13.571-1.152-4.288 1.16-10.415 2.239-7.9 7.751a26.208 26.208 0 0 1 1.4 3.872c-3.75-1.659-8.96 1.861-11.441 4.349-2.36 2.366-3.643 5.114-4.09 7.78-.38 2.27-.031 2.259 1.588 3.863l4.444 4.401 1.795 4.882a35.406 35.406 0 0 0-.51 3.629c-.43 5.006-.285 8.571.43 11.849-2.609-1.018-5.602-.541-6.933 2.227-.507 1.053-.808 2.125-1.19 3.681-5.82 5.607 5.085 12.958 8.267 13.51-.364-1.033-.763-1.978-1.113-2.916 2.157-1.117 1.893-4.3 1.435-6.348-.777.98-1.205 2.26-2.347 2.315-.167-2.317-.138-4.878-1.948-6.238.536-1.432.508-1.433 2.03-.848 2.163.833 3.79 2.687 5.429 4.497 1.764 3.436 4.025 6.493 7.136 9.25 7.644 6.778 14.87 8.995 26.504 10.85a80.477 80.477 0 0 0 4.867 4.691c2.327 2.054 3.838 2.48 6.039 2.595 3.642 4.872 6.508 8.265 12.446 10.764 12.448 5.24 21.027 5.492 31.018-2.745 3.301-2.722 6.117-5.59 9.745-7.863 1.836-1.15 3.149-1.976 4.54-3.634 1.751-2.086 3.181-4.172 4.176-6.858 1.286.53 2.753 1.028 3.937 2.04 1.528 1.306 2.5 3.493 3.917 4.928 1.88 1.904 6.166-.395 7.116-2.212 3.228-6.179 4.55-17.567 3.863-24.339-.848-8.37-4.3-16.285-11.674-20.22-5.015-2.676-11.746-2.926-17.506-1.837l-1.118-3.685c-1.12-3.68-5.492-6.689-9.311-6.869-3.667-.173-5.655 1.72-8.06 4.036l-3.786 3.646a27.583 27.583 0 0 0-.318-2.39c.993-1.962 1.47-3.687 2.32-5.708.936-2.227 1.391-3.689 1.456-6.072l.17-6.347c.943-1.676 1.026-2.084.888-4.003-.29-4.043-2.517-4.429-6.229-4.405-1.236.008-5.903-.021-7.093.065-2.365.17-3.924.351-4.74 1.328zm12.514 22.057c-.746-2.666-1.75-5.183-2.666-8.068-.867-2.731-5.313-10.661-7.93-12.583.509-.38 1.444-.528 3.11-.671 1.178-.102 5.824-.124 6.99-.144 2.568-.045 3.543.148 3.803 3.073.127 1.431.015 1.699-.701 2.954l-.19 6.715c-.06 2.122-.467 3.344-1.302 5.322-.5 1.183-.77 2.288-1.114 3.402zM52.285 131.09c.576.065.933-.237 1.379-.683-.083 1.065-.28 1.854-1.027 2.29a15.366 15.366 0 0 1-.148-.522 8.587 8.587 0 0 1-.204-1.085zm3.622-7.693a56.94 56.94 0 0 1-1.336-3.892c-2.193-.93-5.077-1.521-6.18.783-.536 1.119-.839 2.216-1.23 3.63-3.611 3.741 1.787 8.68 4.728 10.452-.426-.915-.728-1.607-.934-2.32-.895-3.09.404-5.847-2.4-8.087 1.318-2.66 1.257-3.72 4.323-2.491 1.183.474 2.159 1.139 3.029 1.925zm-.845-25.177c1.662-5.748 4.493-11.397 7.631-16.146v-.082c-.197-.817-.425-1.612-.902-2.251-2.243-3-7.949 1.404-9.6 3.09-1.805 1.844-3.014 4.027-3.302 6.074-.209 1.494-.006 1.53 1.036 2.586l4.214 4.266.923 2.463zm106.215 46.141c.32-.316.578-.693.756-1.11.097.09.2.174.31.254-.132.296-.266.588-.402.875a43.879 43.879 0 0 1-.664-.019zm-27.476-10.34a4.485 4.485 0 0 0-.437 1.9c-1.077-.86-2.247-1.676-3.462-2.147 1.677 1.498 3.955 5.03 5.605 6.144 1.874 1.266 4.416 1.02 6.6 2.03-.746-.677-1.702-1.223-2.674-1.743a4.503 4.503 0 0 0 2.936-3.737c1.467.482 2.908.71 4.125.693-4.354-1.222-8.984-4.08-12.177-7.865.359.987.86 1.878 1.464 2.673a4.49 4.49 0 0 0-1.98 2.052zm-20.186 15.748a56.457 56.457 0 0 0-6.94-2.231c-2.138-2.81-3.44-4.266-3.933-8.033-.579 3.706-.7 4.394.95 7.16-.478-.244-.922-.578-1.56-1.122-2.303-1.97-5.307-9.712-6.507-12.48.762 3.331 3.146 11.659 5.602 14.086 1.615 1.597 1.98 1.56 4.258 1.776 2.712.257 5.419.537 8.13.843zm50.174-8.079c1.95-.184 3.065-.485 4.81.379 3.256 1.61 5.65 4.24 7.203 7.384-.95-3.752-2.861-6.94-6.827-8.354-1.947-.694-3.203.023-5.186.591zm-37.425-.366c.735 3.253 2.04 6.388 7.092 8.814-6.697-1.677-7.953-4.49-7.092-8.814zM39.519 123.8c.575 6.507 1.84 9.316 6.463 14.212-5.798-4.085-7.245-5.942-6.463-14.212" style="fill:#000;fill-opacity:1;fill-rule:evenodd;stroke:none" transform="matrix(1.25 0 0 -1.25 -37.44 223.04)"/>
    <path d="M134.675 132.973a1.885 1.885 0 0 0 .89 2.51 1.892 1.892 0 0 0 2.62-1.16 11.92 11.92 0 0 1-2.405-2.356 2.053 2.053 0 0 0-1.105 1.006M155.643 141.085c.075.775.736 1.347 1.511 1.272a1.418 1.418 0 0 0 1.273-1.544 1.4 1.4 0 0 0-.127-.462c-.71-.12-1.42-.33-2.151-.598-.306.313-.55.885-.506 1.332" style="fill:#ffc;fill-opacity:1;fill-rule:evenodd;stroke:none" transform="matrix(1.25 0 0 -1.25 -37.44 223.04)"/>
</svg>
